%FSLAX25Y25*%
%MOIN*%
G70*
G01*
G75*
G04 Layer_Physical_Order=2*
G04 Layer_Color=16711680*
%ADD10R,0.04724X0.13780*%
G04:AMPARAMS|DCode=11|XSize=17.72mil|YSize=39.37mil|CornerRadius=4.43mil|HoleSize=0mil|Usage=FLASHONLY|Rotation=180.000|XOffset=0mil|YOffset=0mil|HoleType=Round|Shape=RoundedRectangle|*
%AMROUNDEDRECTD11*
21,1,0.01772,0.03051,0,0,180.0*
21,1,0.00886,0.03937,0,0,180.0*
1,1,0.00886,-0.00443,0.01526*
1,1,0.00886,0.00443,0.01526*
1,1,0.00886,0.00443,-0.01526*
1,1,0.00886,-0.00443,-0.01526*
%
%ADD11ROUNDEDRECTD11*%
%ADD12R,0.01772X0.03937*%
%ADD13R,0.03937X0.01772*%
%ADD14R,0.01969X0.09055*%
%ADD15R,0.05118X0.06102*%
%ADD16R,0.02756X0.02362*%
%ADD17R,0.02165X0.05906*%
%ADD18R,0.02362X0.02756*%
%ADD19R,0.03937X0.04331*%
%ADD20R,0.02362X0.01969*%
%ADD21R,0.02756X0.03543*%
%ADD22R,0.04331X0.03937*%
%ADD23R,0.03543X0.02756*%
%ADD24R,0.01969X0.02362*%
%ADD25R,0.25000X0.50000*%
%ADD26C,0.01000*%
%ADD27C,0.10000*%
%ADD28R,0.07874X0.09843*%
%ADD29C,0.07400*%
%ADD30C,0.05512*%
%ADD31R,0.05500X0.05500*%
%ADD32C,0.06000*%
%ADD33R,0.05118X0.05118*%
%ADD34R,0.05906X0.05906*%
%ADD35C,0.03500*%
%ADD36C,0.03543*%
%ADD37C,0.03000*%
G36*
X250000Y0D02*
X0D01*
Y200000D01*
X250000D01*
Y0D01*
D02*
G37*
%LPC*%
G36*
X125500Y72587D02*
X124572Y72464D01*
X123707Y72106D01*
X122964Y71536D01*
X122394Y70793D01*
X122036Y69928D01*
X121913Y69000D01*
X122036Y68072D01*
X122394Y67207D01*
X122964Y66464D01*
X123707Y65894D01*
X124572Y65536D01*
X125500Y65413D01*
X126428Y65536D01*
X127293Y65894D01*
X128036Y66464D01*
X128606Y67207D01*
X128964Y68072D01*
X129087Y69000D01*
X128964Y69928D01*
X128606Y70793D01*
X128036Y71536D01*
X127293Y72106D01*
X126428Y72464D01*
X125500Y72587D01*
D02*
G37*
G36*
X194250Y64250D02*
X191000D01*
Y61000D01*
X194250D01*
Y64250D01*
D02*
G37*
G36*
X74359Y99859D02*
X67641D01*
Y93141D01*
X72485D01*
X87563Y78063D01*
X87993Y77775D01*
X88500Y77675D01*
X122200D01*
X122394Y77207D01*
X122964Y76464D01*
X123707Y75894D01*
X124572Y75536D01*
X125500Y75413D01*
X126428Y75536D01*
X127293Y75894D01*
X128036Y76464D01*
X128606Y77207D01*
X128964Y78072D01*
X129087Y79000D01*
X128964Y79928D01*
X128606Y80793D01*
X128036Y81536D01*
X127293Y82106D01*
X126428Y82464D01*
X125500Y82587D01*
X124572Y82464D01*
X123707Y82106D01*
X122964Y81536D01*
X122394Y80793D01*
X122200Y80326D01*
X89049D01*
X74359Y95015D01*
Y99859D01*
D02*
G37*
G36*
X107308Y83200D02*
X105100D01*
Y80992D01*
X105318Y81021D01*
X105987Y81298D01*
X106561Y81739D01*
X107002Y82313D01*
X107279Y82982D01*
X107308Y83200D01*
D02*
G37*
G36*
X104100D02*
X101892D01*
X101921Y82982D01*
X102198Y82313D01*
X102639Y81739D01*
X103213Y81298D01*
X103882Y81021D01*
X104100Y80992D01*
Y83200D01*
D02*
G37*
G36*
X204050Y64050D02*
X196950D01*
Y56950D01*
X204050D01*
Y64050D01*
D02*
G37*
G36*
X194250Y60000D02*
X191000D01*
Y56750D01*
X194250D01*
Y60000D01*
D02*
G37*
G36*
X143500Y87900D02*
X142505Y87702D01*
X141662Y87138D01*
X141098Y86295D01*
X140900Y85300D01*
X141098Y84305D01*
X141662Y83461D01*
X142505Y82898D01*
X143500Y82700D01*
X144495Y82898D01*
X145338Y83461D01*
X145681Y83974D01*
X185151D01*
X206950Y62176D01*
Y56950D01*
X214050D01*
Y64050D01*
X208824D01*
X186637Y86237D01*
X186207Y86525D01*
X185700Y86625D01*
X145681D01*
X145338Y87138D01*
X144495Y87702D01*
X143500Y87900D01*
D02*
G37*
G36*
X190000Y64250D02*
X186750D01*
Y61000D01*
X190000D01*
Y64250D01*
D02*
G37*
G36*
X224050Y64050D02*
X216950D01*
Y56950D01*
X224050D01*
Y64050D01*
D02*
G37*
G36*
X104100Y86408D02*
X103882Y86379D01*
X103213Y86102D01*
X102639Y85661D01*
X102198Y85087D01*
X101921Y84418D01*
X101892Y84200D01*
X104100D01*
Y86408D01*
D02*
G37*
G36*
X204050Y104050D02*
X196950D01*
Y96950D01*
X204050D01*
Y104050D01*
D02*
G37*
G36*
X194050D02*
X186950D01*
Y96950D01*
X194050D01*
Y104050D01*
D02*
G37*
G36*
X245500Y105000D02*
X243292D01*
X243321Y104782D01*
X243598Y104113D01*
X244039Y103539D01*
X244613Y103098D01*
X245282Y102821D01*
X245500Y102792D01*
Y105000D01*
D02*
G37*
G36*
Y108208D02*
X245282Y108179D01*
X244613Y107902D01*
X244039Y107461D01*
X243598Y106887D01*
X243321Y106218D01*
X243292Y106000D01*
X245500D01*
Y108208D01*
D02*
G37*
G36*
X248708Y105000D02*
X246500D01*
Y102792D01*
X246718Y102821D01*
X247387Y103098D01*
X247961Y103539D01*
X248402Y104113D01*
X248679Y104782D01*
X248708Y105000D01*
D02*
G37*
G36*
X14753Y100253D02*
X7247D01*
Y92747D01*
X14753D01*
Y100253D01*
D02*
G37*
G36*
X105100Y86408D02*
Y84200D01*
X107308D01*
X107279Y84418D01*
X107002Y85087D01*
X106561Y85661D01*
X105987Y86102D01*
X105318Y86379D01*
X105100Y86408D01*
D02*
G37*
G36*
X34753Y100253D02*
X27247D01*
Y92747D01*
X34753D01*
Y100253D01*
D02*
G37*
G36*
X184050Y104050D02*
X176950D01*
Y96950D01*
X184050D01*
Y104050D01*
D02*
G37*
G36*
X64359Y99859D02*
X57641D01*
Y93141D01*
X64359D01*
Y99859D01*
D02*
G37*
G36*
X90500Y9208D02*
X90282Y9179D01*
X89613Y8902D01*
X89039Y8461D01*
X88598Y7887D01*
X88321Y7218D01*
X88292Y7000D01*
X90500D01*
Y9208D01*
D02*
G37*
G36*
X169208Y6000D02*
X167000D01*
Y3792D01*
X167218Y3821D01*
X167887Y4098D01*
X168461Y4539D01*
X168902Y5113D01*
X169179Y5782D01*
X169208Y6000D01*
D02*
G37*
G36*
X91500Y9208D02*
Y7000D01*
X93708D01*
X93679Y7218D01*
X93402Y7887D01*
X92961Y8461D01*
X92387Y8902D01*
X91718Y9179D01*
X91500Y9208D01*
D02*
G37*
G36*
X129500D02*
Y7000D01*
X131708D01*
X131679Y7218D01*
X131402Y7887D01*
X130961Y8461D01*
X130387Y8902D01*
X129718Y9179D01*
X129500Y9208D01*
D02*
G37*
G36*
X128500D02*
X128282Y9179D01*
X127613Y8902D01*
X127039Y8461D01*
X126598Y7887D01*
X126321Y7218D01*
X126292Y7000D01*
X128500D01*
Y9208D01*
D02*
G37*
G36*
X93708Y6000D02*
X91500D01*
Y3792D01*
X91718Y3821D01*
X92387Y4098D01*
X92961Y4539D01*
X93402Y5113D01*
X93679Y5782D01*
X93708Y6000D01*
D02*
G37*
G36*
X90500D02*
X88292D01*
X88321Y5782D01*
X88598Y5113D01*
X89039Y4539D01*
X89613Y4098D01*
X90282Y3821D01*
X90500Y3792D01*
Y6000D01*
D02*
G37*
G36*
X128500D02*
X126292D01*
X126321Y5782D01*
X126598Y5113D01*
X127039Y4539D01*
X127613Y4098D01*
X128282Y3821D01*
X128500Y3792D01*
Y6000D01*
D02*
G37*
G36*
X166000D02*
X163792D01*
X163821Y5782D01*
X164098Y5113D01*
X164539Y4539D01*
X165113Y4098D01*
X165782Y3821D01*
X166000Y3792D01*
Y6000D01*
D02*
G37*
G36*
X131708D02*
X129500D01*
Y3792D01*
X129718Y3821D01*
X130387Y4098D01*
X130961Y4539D01*
X131402Y5113D01*
X131679Y5782D01*
X131708Y6000D01*
D02*
G37*
G36*
X166000Y9208D02*
X165782Y9179D01*
X165113Y8902D01*
X164539Y8461D01*
X164098Y7887D01*
X163821Y7218D01*
X163792Y7000D01*
X166000D01*
Y9208D01*
D02*
G37*
G36*
X234000Y38708D02*
Y36500D01*
X236208D01*
X236179Y36718D01*
X235902Y37387D01*
X235461Y37961D01*
X234887Y38402D01*
X234218Y38679D01*
X234000Y38708D01*
D02*
G37*
G36*
X233000D02*
X232782Y38679D01*
X232113Y38402D01*
X231539Y37961D01*
X231098Y37387D01*
X230821Y36718D01*
X230792Y36500D01*
X233000D01*
Y38708D01*
D02*
G37*
G36*
X188200Y131400D02*
X187205Y131202D01*
X186362Y130638D01*
X185798Y129795D01*
X185600Y128800D01*
X185798Y127805D01*
X186362Y126962D01*
X187205Y126398D01*
X188200Y126200D01*
X188805Y126320D01*
X210614Y104512D01*
X210422Y104050D01*
X206950D01*
Y96950D01*
X214050D01*
Y101761D01*
X214512Y101952D01*
X215125Y101339D01*
Y96450D01*
X215225Y95943D01*
X215513Y95513D01*
X215513Y95513D01*
X215513Y95513D01*
X240974Y70051D01*
Y54181D01*
X240461Y53838D01*
X239898Y52995D01*
X239700Y52000D01*
X239898Y51005D01*
X240461Y50161D01*
X241305Y49598D01*
X242300Y49400D01*
X243295Y49598D01*
X244139Y50161D01*
X244702Y51005D01*
X244900Y52000D01*
X244702Y52995D01*
X244139Y53838D01*
X243625Y54181D01*
Y70600D01*
X243525Y71107D01*
X243237Y71537D01*
X218286Y96488D01*
X218478Y96950D01*
X224050D01*
Y104050D01*
X216950D01*
Y103916D01*
X216488Y103725D01*
X214726Y105487D01*
X214296Y105775D01*
X213789Y105876D01*
X212999D01*
X190680Y128195D01*
X190800Y128800D01*
X190602Y129795D01*
X190038Y130638D01*
X189195Y131202D01*
X188200Y131400D01*
D02*
G37*
G36*
X190000Y60000D02*
X186750D01*
Y56750D01*
X190000D01*
Y60000D01*
D02*
G37*
G36*
X180500Y64333D02*
X179508Y64202D01*
X178584Y63819D01*
X177790Y63210D01*
X177181Y62416D01*
X176798Y61492D01*
X176667Y60500D01*
X176798Y59508D01*
X177181Y58584D01*
X177790Y57790D01*
X178584Y57181D01*
X179508Y56798D01*
X180500Y56667D01*
X181492Y56798D01*
X182416Y57181D01*
X183210Y57790D01*
X183819Y58584D01*
X184202Y59508D01*
X184333Y60500D01*
X184202Y61492D01*
X183819Y62416D01*
X183210Y63210D01*
X182416Y63819D01*
X181492Y64202D01*
X180500Y64333D01*
D02*
G37*
G36*
X217339Y20830D02*
X216667Y20742D01*
X216042Y20483D01*
X215505Y20070D01*
X215092Y19533D01*
X214833Y18908D01*
X214745Y18236D01*
X214833Y17565D01*
X215092Y16939D01*
X215505Y16402D01*
X216042Y15990D01*
X216667Y15731D01*
X217339Y15642D01*
X218010Y15731D01*
X218636Y15990D01*
X219173Y16402D01*
X219585Y16939D01*
X219844Y17565D01*
X219932Y18236D01*
X219844Y18908D01*
X219585Y19533D01*
X219173Y20070D01*
X218636Y20483D01*
X218010Y20742D01*
X217339Y20830D01*
D02*
G37*
G36*
X167000Y9208D02*
Y7000D01*
X169208D01*
X169179Y7218D01*
X168902Y7887D01*
X168461Y8461D01*
X167887Y8902D01*
X167218Y9179D01*
X167000Y9208D01*
D02*
G37*
G36*
X234661Y20830D02*
X233990Y20742D01*
X233365Y20483D01*
X232827Y20070D01*
X232415Y19533D01*
X232156Y18908D01*
X232068Y18236D01*
X232156Y17565D01*
X232415Y16939D01*
X232827Y16402D01*
X233365Y15990D01*
X233990Y15731D01*
X234661Y15642D01*
X235333Y15731D01*
X235958Y15990D01*
X236495Y16402D01*
X236908Y16939D01*
X237167Y17565D01*
X237255Y18236D01*
X237167Y18908D01*
X236908Y19533D01*
X236495Y20070D01*
X235958Y20483D01*
X235333Y20742D01*
X234661Y20830D01*
D02*
G37*
G36*
X236208Y35500D02*
X234000D01*
Y33292D01*
X234218Y33321D01*
X234887Y33598D01*
X235461Y34039D01*
X235902Y34613D01*
X236179Y35282D01*
X236208Y35500D01*
D02*
G37*
G36*
X233000D02*
X230792D01*
X230821Y35282D01*
X231098Y34613D01*
X231539Y34039D01*
X232113Y33598D01*
X232782Y33321D01*
X233000Y33292D01*
Y35500D01*
D02*
G37*
G36*
X246500Y108208D02*
Y106000D01*
X248708D01*
X248679Y106218D01*
X248402Y106887D01*
X247961Y107461D01*
X247387Y107902D01*
X246718Y108179D01*
X246500Y108208D01*
D02*
G37*
G36*
X205500Y171208D02*
Y169000D01*
X207708D01*
X207679Y169218D01*
X207402Y169887D01*
X206961Y170461D01*
X206387Y170902D01*
X205718Y171179D01*
X205500Y171208D01*
D02*
G37*
G36*
X204500D02*
X204282Y171179D01*
X203613Y170902D01*
X203039Y170461D01*
X202598Y169887D01*
X202321Y169218D01*
X202292Y169000D01*
X204500D01*
Y171208D01*
D02*
G37*
G36*
X122500Y171508D02*
X122282Y171479D01*
X121613Y171202D01*
X121039Y170761D01*
X120598Y170187D01*
X120321Y169518D01*
X120292Y169300D01*
X122500D01*
Y171508D01*
D02*
G37*
G36*
X164000Y194539D02*
X162825Y194384D01*
X161731Y193931D01*
X160791Y193209D01*
X160069Y192269D01*
X159616Y191175D01*
X159461Y190000D01*
X159616Y188825D01*
X160069Y187731D01*
X160791Y186791D01*
X161731Y186069D01*
X162825Y185616D01*
X164000Y185461D01*
X165175Y185616D01*
X166119Y186007D01*
X167675Y184451D01*
Y183367D01*
X167209Y183209D01*
X166269Y183931D01*
X165175Y184384D01*
X164000Y184539D01*
X162825Y184384D01*
X161731Y183931D01*
X160791Y183209D01*
X160069Y182269D01*
X159616Y181175D01*
X159461Y180000D01*
X159616Y178825D01*
X160069Y177731D01*
X160791Y176791D01*
X161731Y176069D01*
X162825Y175616D01*
X164000Y175461D01*
X164211Y175489D01*
X164553Y175124D01*
X164474Y174729D01*
Y161781D01*
X163962Y161438D01*
X163398Y160595D01*
X163200Y159600D01*
X163398Y158605D01*
X163962Y157762D01*
X164796Y157204D01*
X164651Y156726D01*
X162200D01*
X161693Y156625D01*
X161263Y156337D01*
X160101Y155175D01*
X145637D01*
X145129Y155075D01*
X144699Y154787D01*
X142238Y152325D01*
X103281D01*
X102938Y152838D01*
X102095Y153402D01*
X101100Y153600D01*
X100105Y153402D01*
X99261Y152838D01*
X98698Y151995D01*
X98500Y151000D01*
X98698Y150005D01*
X99261Y149162D01*
X100105Y148598D01*
X101100Y148400D01*
X102095Y148598D01*
X102938Y149162D01*
X103281Y149674D01*
X142787D01*
X143294Y149775D01*
X143304Y149782D01*
X143621Y149396D01*
X128413Y134187D01*
X128125Y133757D01*
X128024Y133250D01*
Y127712D01*
X127609Y127435D01*
X127018Y127679D01*
X126800Y127708D01*
Y125000D01*
Y122292D01*
X127018Y122321D01*
X127609Y122565D01*
X128024Y122288D01*
Y103115D01*
X127462Y102738D01*
X126898Y101895D01*
X126700Y100900D01*
X126898Y99905D01*
X127462Y99062D01*
X128305Y98498D01*
X129300Y98300D01*
X130295Y98498D01*
X131138Y99062D01*
X131700Y99902D01*
X132200D01*
X132762Y99062D01*
X133605Y98498D01*
X134600Y98300D01*
X135595Y98498D01*
X136438Y99062D01*
X137002Y99905D01*
X137200Y100900D01*
X137002Y101895D01*
X136438Y102738D01*
X135925Y103081D01*
Y132551D01*
X151493Y148119D01*
X152395Y148298D01*
X153238Y148862D01*
X153802Y149705D01*
X154000Y150700D01*
X153802Y151695D01*
X153542Y152084D01*
X153778Y152524D01*
X160650D01*
X161157Y152625D01*
X161587Y152913D01*
X161587Y152913D01*
X161587Y152913D01*
X162749Y154075D01*
X170247D01*
X170438Y153613D01*
X168901Y152076D01*
X167037D01*
X166529Y151975D01*
X166099Y151687D01*
X165941Y151528D01*
X165838Y151539D01*
X164995Y152102D01*
X164000Y152300D01*
X163005Y152102D01*
X162162Y151538D01*
X161598Y150695D01*
X161400Y149700D01*
X161598Y148705D01*
X162162Y147862D01*
X163005Y147298D01*
X164000Y147100D01*
X164995Y147298D01*
X165314Y147511D01*
X165776Y147320D01*
X165898Y146705D01*
X166462Y145862D01*
X167305Y145298D01*
X168300Y145100D01*
X169295Y145298D01*
X170138Y145862D01*
X170481Y146374D01*
X173600D01*
X174107Y146475D01*
X174537Y146763D01*
X174537Y146763D01*
X174537Y146763D01*
X174813Y147038D01*
X175275Y146847D01*
Y138381D01*
X174762Y138038D01*
X174198Y137195D01*
X174000Y136200D01*
X174198Y135205D01*
X174762Y134362D01*
X175605Y133798D01*
X176600Y133600D01*
X177595Y133798D01*
X178438Y134362D01*
X179002Y135205D01*
X179200Y136200D01*
X179002Y137195D01*
X178438Y138038D01*
X177926Y138381D01*
Y147605D01*
X182437Y152117D01*
X182725Y152547D01*
X182826Y153054D01*
Y154251D01*
X194595Y166020D01*
X195200Y165900D01*
X196195Y166098D01*
X197038Y166662D01*
X197602Y167505D01*
X197800Y168500D01*
X197602Y169495D01*
X197038Y170338D01*
X196195Y170902D01*
X195200Y171100D01*
X194205Y170902D01*
X193362Y170338D01*
X192948Y169720D01*
X192451Y169769D01*
X192402Y169887D01*
X191961Y170461D01*
X191387Y170902D01*
X190718Y171179D01*
X190500Y171208D01*
Y168500D01*
X190000D01*
Y168000D01*
X187292D01*
X187321Y167782D01*
X187598Y167113D01*
X188039Y166539D01*
X188613Y166098D01*
X189282Y165821D01*
X189927Y165736D01*
X190088Y165262D01*
X181487Y156662D01*
X181026Y156853D01*
Y164119D01*
X181538Y164462D01*
X182102Y165305D01*
X182300Y166300D01*
X182102Y167295D01*
X181538Y168138D01*
X180695Y168702D01*
X179700Y168900D01*
X178705Y168702D01*
X178386Y168489D01*
X177924Y168680D01*
X177802Y169295D01*
X177238Y170138D01*
X176395Y170702D01*
X175400Y170900D01*
X175326Y171213D01*
Y175678D01*
X176269Y176069D01*
X177209Y176791D01*
X177931Y177731D01*
X178384Y178825D01*
X178539Y180000D01*
X178384Y181175D01*
X177931Y182269D01*
X177209Y183209D01*
X176269Y183931D01*
X175175Y184384D01*
X174000Y184539D01*
X172825Y184384D01*
X171731Y183931D01*
X170791Y183209D01*
X170326Y183367D01*
Y185000D01*
X170225Y185507D01*
X169937Y185937D01*
X167993Y187881D01*
X168384Y188825D01*
X168539Y190000D01*
X168384Y191175D01*
X167931Y192269D01*
X167209Y193209D01*
X166269Y193931D01*
X165175Y194384D01*
X164000Y194539D01*
D02*
G37*
G36*
X123500Y171508D02*
Y169300D01*
X125708D01*
X125679Y169518D01*
X125402Y170187D01*
X124961Y170761D01*
X124387Y171202D01*
X123718Y171479D01*
X123500Y171508D01*
D02*
G37*
G36*
X207708Y168000D02*
X205500D01*
Y165792D01*
X205718Y165821D01*
X206387Y166098D01*
X206961Y166539D01*
X207402Y167113D01*
X207679Y167782D01*
X207708Y168000D01*
D02*
G37*
G36*
X204500D02*
X202292D01*
X202321Y167782D01*
X202598Y167113D01*
X203039Y166539D01*
X203613Y166098D01*
X204282Y165821D01*
X204500Y165792D01*
Y168000D01*
D02*
G37*
G36*
X122500Y168300D02*
X120292D01*
X120321Y168082D01*
X120598Y167413D01*
X121039Y166839D01*
X121613Y166398D01*
X122282Y166121D01*
X122500Y166092D01*
Y168300D01*
D02*
G37*
G36*
X189500Y171208D02*
X189282Y171179D01*
X188613Y170902D01*
X188039Y170461D01*
X187598Y169887D01*
X187321Y169218D01*
X187292Y169000D01*
X189500D01*
Y171208D01*
D02*
G37*
G36*
X125708Y168300D02*
X123500D01*
Y166092D01*
X123718Y166121D01*
X124387Y166398D01*
X124961Y166839D01*
X125402Y167413D01*
X125679Y168082D01*
X125708Y168300D01*
D02*
G37*
G36*
X173500Y189500D02*
X169325D01*
X169421Y188773D01*
X169895Y187630D01*
X170648Y186648D01*
X171630Y185895D01*
X172773Y185421D01*
X173500Y185325D01*
Y189500D01*
D02*
G37*
G36*
Y194675D02*
X172773Y194579D01*
X171630Y194105D01*
X170648Y193352D01*
X169895Y192370D01*
X169421Y191227D01*
X169325Y190500D01*
X173500D01*
Y194675D01*
D02*
G37*
G36*
X104000Y194689D02*
X102825Y194534D01*
X101731Y194081D01*
X100791Y193359D01*
X100069Y192419D01*
X99616Y191325D01*
X99461Y190150D01*
X99616Y188975D01*
X100069Y187881D01*
X100791Y186941D01*
X101731Y186219D01*
X102825Y185766D01*
X104000Y185611D01*
X105175Y185766D01*
X106269Y186219D01*
X107209Y186941D01*
X107931Y187881D01*
X108384Y188975D01*
X108539Y190150D01*
X108384Y191325D01*
X107931Y192419D01*
X107209Y193359D01*
X106269Y194081D01*
X105175Y194534D01*
X104000Y194689D01*
D02*
G37*
G36*
X174500Y194675D02*
Y190500D01*
X178675D01*
X178579Y191227D01*
X178105Y192370D01*
X177352Y193352D01*
X176370Y194105D01*
X175227Y194579D01*
X174500Y194675D01*
D02*
G37*
G36*
X114500Y194825D02*
Y190650D01*
X118675D01*
X118579Y191377D01*
X118105Y192520D01*
X117352Y193502D01*
X116370Y194255D01*
X115227Y194729D01*
X114500Y194825D01*
D02*
G37*
G36*
X113500D02*
X112773Y194729D01*
X111630Y194255D01*
X110648Y193502D01*
X109895Y192520D01*
X109421Y191377D01*
X109325Y190650D01*
X113500D01*
Y194825D01*
D02*
G37*
G36*
X154000Y194539D02*
X152825Y194384D01*
X151731Y193931D01*
X150791Y193209D01*
X150069Y192269D01*
X149616Y191175D01*
X149461Y190000D01*
X149616Y188825D01*
X150069Y187731D01*
X150791Y186791D01*
X151731Y186069D01*
X152825Y185616D01*
X154000Y185461D01*
X155175Y185616D01*
X156269Y186069D01*
X157209Y186791D01*
X157931Y187731D01*
X158384Y188825D01*
X158539Y190000D01*
X158384Y191175D01*
X157931Y192269D01*
X157209Y193209D01*
X156269Y193931D01*
X155175Y194384D01*
X154000Y194539D01*
D02*
G37*
G36*
X178675Y189500D02*
X174500D01*
Y185325D01*
X175227Y185421D01*
X176370Y185895D01*
X177352Y186648D01*
X178105Y187630D01*
X178579Y188773D01*
X178675Y189500D01*
D02*
G37*
G36*
X113500Y189650D02*
X109325D01*
X109421Y188923D01*
X109895Y187780D01*
X110648Y186798D01*
X111630Y186045D01*
X112773Y185571D01*
X113500Y185475D01*
Y189650D01*
D02*
G37*
G36*
X94000Y194689D02*
X92825Y194534D01*
X91731Y194081D01*
X90791Y193359D01*
X90069Y192419D01*
X89616Y191325D01*
X89461Y190150D01*
X89616Y188975D01*
X90069Y187881D01*
X90791Y186941D01*
X91731Y186219D01*
X92825Y185766D01*
X94000Y185611D01*
X95175Y185766D01*
X96269Y186219D01*
X97209Y186941D01*
X97931Y187881D01*
X98384Y188975D01*
X98539Y190150D01*
X98384Y191325D01*
X97931Y192419D01*
X97209Y193359D01*
X96269Y194081D01*
X95175Y194534D01*
X94000Y194689D01*
D02*
G37*
G36*
X118675Y189650D02*
X114500D01*
Y185475D01*
X115227Y185571D01*
X116370Y186045D01*
X117352Y186798D01*
X118105Y187780D01*
X118579Y188923D01*
X118675Y189650D01*
D02*
G37*
G36*
X230200Y165700D02*
X229205Y165502D01*
X228362Y164938D01*
X227798Y164095D01*
X227600Y163100D01*
X227720Y162495D01*
X208951Y143726D01*
X184981D01*
X184638Y144238D01*
X183795Y144802D01*
X182800Y145000D01*
X181805Y144802D01*
X180962Y144238D01*
X180398Y143395D01*
X180200Y142400D01*
X180398Y141405D01*
X180962Y140562D01*
X181805Y139998D01*
X182800Y139800D01*
X183795Y139998D01*
X184638Y140562D01*
X184981Y141075D01*
X209500D01*
X210007Y141175D01*
X210437Y141463D01*
X210437Y141463D01*
X210437Y141463D01*
X229595Y160620D01*
X230200Y160500D01*
X231195Y160698D01*
X232038Y161262D01*
X232602Y162105D01*
X232800Y163100D01*
X232602Y164095D01*
X232038Y164938D01*
X231195Y165502D01*
X230200Y165700D01*
D02*
G37*
G36*
X143208Y126500D02*
X137792D01*
X137821Y126282D01*
X138098Y125613D01*
X138539Y125039D01*
X139113Y124598D01*
X139349Y124500D01*
Y124000D01*
X139113Y123902D01*
X138539Y123461D01*
X138098Y122887D01*
X137821Y122218D01*
X137792Y122000D01*
X143208D01*
X143179Y122218D01*
X142902Y122887D01*
X142461Y123461D01*
X141887Y123902D01*
X141651Y124000D01*
Y124500D01*
X141887Y124598D01*
X142461Y125039D01*
X142902Y125613D01*
X143179Y126282D01*
X143208Y126500D01*
D02*
G37*
G36*
Y121000D02*
X141000D01*
Y118792D01*
X141218Y118821D01*
X141887Y119098D01*
X142461Y119539D01*
X142902Y120113D01*
X143179Y120782D01*
X143208Y121000D01*
D02*
G37*
G36*
X125800Y124500D02*
X123592D01*
X123621Y124282D01*
X123898Y123613D01*
X124339Y123039D01*
X124913Y122598D01*
X125582Y122321D01*
X125800Y122292D01*
Y124500D01*
D02*
G37*
G36*
X121608Y124600D02*
X119400D01*
Y122392D01*
X119618Y122421D01*
X120287Y122698D01*
X120861Y123139D01*
X121302Y123713D01*
X121579Y124382D01*
X121608Y124600D01*
D02*
G37*
G36*
X118400D02*
X116192D01*
X116221Y124382D01*
X116498Y123713D01*
X116939Y123139D01*
X117513Y122698D01*
X118182Y122421D01*
X118400Y122392D01*
Y124600D01*
D02*
G37*
G36*
X145608Y109000D02*
X143400D01*
Y106792D01*
X143618Y106821D01*
X144287Y107098D01*
X144861Y107539D01*
X145302Y108113D01*
X145579Y108782D01*
X145608Y109000D01*
D02*
G37*
G36*
X142400D02*
X140192D01*
X140221Y108782D01*
X140498Y108113D01*
X140939Y107539D01*
X141513Y107098D01*
X142182Y106821D01*
X142400Y106792D01*
Y109000D01*
D02*
G37*
G36*
Y112208D02*
X142182Y112179D01*
X141513Y111902D01*
X140939Y111461D01*
X140498Y110887D01*
X140221Y110218D01*
X140192Y110000D01*
X142400D01*
Y112208D01*
D02*
G37*
G36*
X140000Y121000D02*
X137792D01*
X137821Y120782D01*
X138098Y120113D01*
X138539Y119539D01*
X139113Y119098D01*
X139782Y118821D01*
X140000Y118792D01*
Y121000D01*
D02*
G37*
G36*
X143400Y112208D02*
Y110000D01*
X145608D01*
X145579Y110218D01*
X145302Y110887D01*
X144861Y111461D01*
X144287Y111902D01*
X143618Y112179D01*
X143400Y112208D01*
D02*
G37*
G36*
X125800Y127708D02*
X125582Y127679D01*
X124913Y127402D01*
X124339Y126961D01*
X123898Y126387D01*
X123621Y125718D01*
X123592Y125500D01*
X125800D01*
Y127708D01*
D02*
G37*
G36*
X243000Y132208D02*
X242782Y132179D01*
X242113Y131902D01*
X241539Y131461D01*
X241098Y130887D01*
X240821Y130218D01*
X240792Y130000D01*
X243000D01*
Y132208D01*
D02*
G37*
G36*
X141000Y129708D02*
Y127500D01*
X143208D01*
X143179Y127718D01*
X142902Y128387D01*
X142461Y128961D01*
X141887Y129402D01*
X141218Y129679D01*
X141000Y129708D01*
D02*
G37*
G36*
X244000Y132208D02*
Y130000D01*
X246208D01*
X246179Y130218D01*
X245902Y130887D01*
X245461Y131461D01*
X244887Y131902D01*
X244218Y132179D01*
X244000Y132208D01*
D02*
G37*
G36*
X154000Y184539D02*
X152825Y184384D01*
X151731Y183931D01*
X150791Y183209D01*
X150069Y182269D01*
X149616Y181175D01*
X149461Y180000D01*
X149616Y178825D01*
X150069Y177731D01*
X150791Y176791D01*
X151731Y176069D01*
X152825Y175616D01*
X154000Y175461D01*
X155175Y175616D01*
X155959Y175941D01*
X156375Y175663D01*
Y162581D01*
X155862Y162238D01*
X155298Y161395D01*
X155100Y160400D01*
X155298Y159405D01*
X155862Y158562D01*
X156705Y157998D01*
X157700Y157800D01*
X158695Y157998D01*
X159538Y158562D01*
X160102Y159405D01*
X160300Y160400D01*
X160102Y161395D01*
X159538Y162238D01*
X159026Y162581D01*
Y176300D01*
X158925Y176807D01*
X158637Y177237D01*
X157993Y177881D01*
X158384Y178825D01*
X158539Y180000D01*
X158384Y181175D01*
X157931Y182269D01*
X157209Y183209D01*
X156269Y183931D01*
X155175Y184384D01*
X154000Y184539D01*
D02*
G37*
G36*
X100800Y142300D02*
X99805Y142102D01*
X98962Y141538D01*
X98398Y140695D01*
X98378Y140594D01*
X94929Y137145D01*
X92680D01*
X92595Y137202D01*
X91600Y137400D01*
X90605Y137202D01*
X89762Y136638D01*
X89198Y135795D01*
X89000Y134800D01*
X89198Y133805D01*
X89762Y132962D01*
X90605Y132398D01*
X91600Y132200D01*
X92595Y132398D01*
X92680Y132455D01*
X95900D01*
X96797Y132633D01*
X97558Y133142D01*
X101694Y137278D01*
X101795Y137298D01*
X102638Y137862D01*
X103202Y138705D01*
X103400Y139700D01*
X103202Y140695D01*
X102638Y141538D01*
X101795Y142102D01*
X100800Y142300D01*
D02*
G37*
G36*
X119400Y127808D02*
Y125600D01*
X121608D01*
X121579Y125818D01*
X121302Y126487D01*
X120861Y127061D01*
X120287Y127502D01*
X119618Y127779D01*
X119400Y127808D01*
D02*
G37*
G36*
X118400D02*
X118182Y127779D01*
X117513Y127502D01*
X116939Y127061D01*
X116498Y126487D01*
X116221Y125818D01*
X116192Y125600D01*
X118400D01*
Y127808D01*
D02*
G37*
G36*
X243000Y129000D02*
X240792D01*
X240821Y128782D01*
X241098Y128113D01*
X241539Y127539D01*
X242113Y127098D01*
X242782Y126821D01*
X243000Y126792D01*
Y129000D01*
D02*
G37*
G36*
X140000Y129708D02*
X139782Y129679D01*
X139113Y129402D01*
X138539Y128961D01*
X138098Y128387D01*
X137821Y127718D01*
X137792Y127500D01*
X140000D01*
Y129708D01*
D02*
G37*
G36*
X246208Y129000D02*
X244000D01*
Y126792D01*
X244218Y126821D01*
X244887Y127098D01*
X245461Y127539D01*
X245902Y128113D01*
X246179Y128782D01*
X246208Y129000D01*
D02*
G37*
%LPD*%
D26*
X154000Y180000D02*
X157700Y176300D01*
Y160400D02*
Y176300D01*
X129350Y133250D02*
X146900Y150800D01*
X181500Y154800D02*
X195200Y168500D01*
X181500Y153054D02*
Y154800D01*
X176600Y148154D02*
X181500Y153054D01*
X176600Y136200D02*
Y148154D01*
X164000Y190000D02*
X169000Y185000D01*
Y177929D02*
Y185000D01*
X165800Y174729D02*
X169000Y177929D01*
X165800Y159600D02*
Y174729D01*
X172350Y157150D02*
Y169563D01*
X170600Y155400D02*
X172350Y157150D01*
X162200Y155400D02*
X170600D01*
X169450Y150750D02*
X175400Y156700D01*
X167037Y150750D02*
X169450D01*
X165987Y149700D02*
X167037Y150750D01*
X164000Y149700D02*
X165987D01*
X175400Y156700D02*
Y168300D01*
X179700Y153800D02*
Y166300D01*
X173600Y147700D02*
X179700Y153800D01*
X168300Y147700D02*
X173600D01*
X174000Y171213D02*
Y180000D01*
X172350Y169563D02*
X174000Y171213D01*
X160650Y153850D02*
X162200Y155400D01*
X145637Y153850D02*
X160650D01*
X142787Y151000D02*
X145637Y153850D01*
X101100Y151000D02*
X142787D01*
X151400Y150700D02*
X151800Y150300D01*
X129350Y100950D02*
Y133250D01*
X129300Y100900D02*
X129350Y100950D01*
X134600Y133100D02*
X151800Y150300D01*
X134600Y100900D02*
Y133100D01*
X216450Y96450D02*
Y101889D01*
X213789Y104550D02*
X216450Y101889D01*
X242300Y52000D02*
Y70600D01*
X216450Y96450D02*
X242300Y70600D01*
X212450Y104550D02*
X213789D01*
X188200Y128800D02*
X212450Y104550D01*
X182800Y142400D02*
X209500D01*
X230200Y163100D01*
X143500Y85300D02*
X185700D01*
X210500Y60500D01*
X71000Y96500D02*
X88500Y79000D01*
X125500D01*
D29*
X154000Y180000D02*
D03*
Y190000D02*
D03*
X164000Y180000D02*
D03*
Y190000D02*
D03*
X174000Y180000D02*
D03*
Y190000D02*
D03*
X94000Y190150D02*
D03*
X104000D02*
D03*
X114000D02*
D03*
D30*
X125500Y69000D02*
D03*
Y79000D02*
D03*
D31*
X180500Y100500D02*
D03*
X190500D02*
D03*
X200500D02*
D03*
X210500D02*
D03*
X220500D02*
D03*
Y60500D02*
D03*
X210500D02*
D03*
X200500D02*
D03*
X190500D02*
D03*
D32*
X180500D02*
D03*
D33*
X61000Y96500D02*
D03*
X71000D02*
D03*
D34*
X31000D02*
D03*
X11000D02*
D03*
D35*
X157700Y160400D02*
D03*
X176600Y136200D02*
D03*
X182800Y142400D02*
D03*
X195200Y168500D02*
D03*
X118900Y125100D02*
D03*
X165800Y159600D02*
D03*
X91600Y134800D02*
D03*
X100800Y139700D02*
D03*
X179700Y166300D02*
D03*
X175400Y168300D02*
D03*
X151400Y150700D02*
D03*
X164000Y149700D02*
D03*
X168300Y147700D02*
D03*
X142900Y109500D02*
D03*
X146900Y150800D02*
D03*
X134600Y100900D02*
D03*
X129300D02*
D03*
X126300Y125000D02*
D03*
X140500Y127000D02*
D03*
X104600Y83700D02*
D03*
X242300Y52000D02*
D03*
X188200Y128800D02*
D03*
X101100Y151000D02*
D03*
X230200Y163100D02*
D03*
X143500Y85300D02*
D03*
X123000Y168800D02*
D03*
X91000Y6500D02*
D03*
X129000D02*
D03*
X166500D02*
D03*
X233500Y36000D02*
D03*
X246000Y105500D02*
D03*
X243500Y129500D02*
D03*
X190000Y168500D02*
D03*
X205000D02*
D03*
X140500Y121500D02*
D03*
D36*
X234661Y18236D02*
D03*
X217339D02*
D03*
D37*
X95900Y134800D02*
X100800Y139700D01*
X91600Y134800D02*
X95900D01*
M02*
