%FSLAX25Y25*%
%MOIN*%
G70*
G01*
G75*
G04 Layer_Physical_Order=1*
G04 Layer_Color=255*
%ADD10R,0.04724X0.13780*%
G04:AMPARAMS|DCode=11|XSize=17.72mil|YSize=39.37mil|CornerRadius=4.43mil|HoleSize=0mil|Usage=FLASHONLY|Rotation=180.000|XOffset=0mil|YOffset=0mil|HoleType=Round|Shape=RoundedRectangle|*
%AMROUNDEDRECTD11*
21,1,0.01772,0.03051,0,0,180.0*
21,1,0.00886,0.03937,0,0,180.0*
1,1,0.00886,-0.00443,0.01526*
1,1,0.00886,0.00443,0.01526*
1,1,0.00886,0.00443,-0.01526*
1,1,0.00886,-0.00443,-0.01526*
%
%ADD11ROUNDEDRECTD11*%
%ADD12R,0.01772X0.03937*%
%ADD13R,0.03937X0.01772*%
%ADD14R,0.01969X0.09055*%
%ADD15R,0.05118X0.06102*%
%ADD16R,0.02756X0.02362*%
%ADD17R,0.02165X0.05906*%
%ADD18R,0.02362X0.02756*%
%ADD19R,0.03937X0.04331*%
%ADD20R,0.02362X0.01969*%
%ADD21R,0.02756X0.03543*%
%ADD22R,0.04331X0.03937*%
%ADD23R,0.03543X0.02756*%
%ADD24R,0.01969X0.02362*%
%ADD25R,0.25000X0.50000*%
%ADD26C,0.01000*%
%ADD27C,0.10000*%
%ADD28R,0.07874X0.09843*%
%ADD29C,0.07400*%
%ADD30C,0.05512*%
%ADD31R,0.05500X0.05500*%
%ADD32C,0.06000*%
%ADD33R,0.05118X0.05118*%
%ADD34R,0.05906X0.05906*%
%ADD35C,0.03500*%
%ADD36C,0.03543*%
G36*
X133089Y160593D02*
X134475D01*
Y160793D01*
X135699D01*
X136016Y160406D01*
X135968Y160163D01*
Y141566D01*
X136068Y141059D01*
X136356Y140629D01*
X136356Y140629D01*
X136356Y140629D01*
X137117Y139867D01*
X137547Y139580D01*
X137793Y139531D01*
Y138155D01*
Y135005D01*
X143330D01*
Y136330D01*
X145238D01*
X145745Y136431D01*
X146175Y136718D01*
X152876Y143419D01*
X153338Y143227D01*
Y136539D01*
X149093Y132294D01*
X145981D01*
Y132753D01*
X142019D01*
Y132294D01*
X137424D01*
Y134637D01*
X131325D01*
Y134837D01*
X129939D01*
Y131869D01*
X128939D01*
Y134837D01*
X127554D01*
Y134637D01*
X125026D01*
Y134837D01*
X123640D01*
Y131869D01*
X122640D01*
Y134837D01*
X121254D01*
Y134637D01*
X115155D01*
D01*
X115155D01*
X115017Y134775D01*
Y158869D01*
X114916Y159376D01*
X114629Y159806D01*
X114103Y160331D01*
X114295Y160793D01*
X130703D01*
Y160593D01*
X132089D01*
Y163561D01*
X133089D01*
Y160593D01*
D02*
G37*
G36*
X106100Y153903D02*
Y150754D01*
Y147604D01*
Y147326D01*
X103812D01*
Y148768D01*
X103206D01*
X102971Y149209D01*
X103502Y150005D01*
X103700Y151000D01*
X103502Y151995D01*
X102938Y152838D01*
X102095Y153402D01*
X101100Y153600D01*
X100105Y153402D01*
X99261Y152838D01*
X98698Y151995D01*
X98500Y151000D01*
X98698Y150005D01*
X99230Y149209D01*
X98994Y148768D01*
X97881D01*
Y143231D01*
X103812D01*
Y144675D01*
X106100D01*
Y144454D01*
Y141305D01*
Y138155D01*
Y135005D01*
X107543D01*
Y129166D01*
X107081Y128975D01*
X99201Y136855D01*
X99478Y137271D01*
X100082Y137021D01*
X100300Y136992D01*
Y139200D01*
X98092D01*
X98121Y138982D01*
X98371Y138378D01*
X97955Y138101D01*
X93486Y142570D01*
X93654Y142974D01*
Y146000D01*
Y149026D01*
X93486Y149430D01*
X98319Y154263D01*
X106100D01*
Y153903D01*
D02*
G37*
G36*
X250000Y0D02*
X90000D01*
Y3705D01*
X90386Y4022D01*
X91000Y3900D01*
X91995Y4098D01*
X92838Y4662D01*
X93283Y4365D01*
Y3499D01*
X100001D01*
Y11202D01*
X93283D01*
Y8635D01*
X92838Y8338D01*
X91995Y8902D01*
X91000Y9100D01*
X90386Y8978D01*
X90000Y9295D01*
Y60000D01*
X80000Y70000D01*
Y78035D01*
X80462Y78227D01*
X81885Y76803D01*
Y74519D01*
X86241D01*
Y78481D01*
X83956D01*
X80000Y82437D01*
Y99986D01*
X85031D01*
Y98347D01*
X88000D01*
Y97847D01*
X88500D01*
Y94681D01*
X90969D01*
Y96521D01*
X97531D01*
Y94681D01*
X100000D01*
Y97847D01*
X101000D01*
Y94681D01*
X101500D01*
X101560Y94535D01*
X101283Y94119D01*
X97732D01*
Y90478D01*
X97270Y90286D01*
X95465Y92091D01*
X95035Y92378D01*
X94528Y92479D01*
X90768D01*
Y94119D01*
X85232D01*
Y88188D01*
X90768D01*
Y89828D01*
X93979D01*
X97056Y86751D01*
X97486Y86464D01*
X97993Y86363D01*
X103134D01*
X103279Y85884D01*
X102762Y85539D01*
X102198Y84695D01*
X102043Y83918D01*
X100937Y82812D01*
X97732D01*
Y81172D01*
X94115D01*
Y82221D01*
X89759D01*
Y78259D01*
X94115D01*
Y78521D01*
X97732D01*
Y76881D01*
X103269D01*
Y80794D01*
X103530Y81185D01*
X103655Y81288D01*
X104600Y81100D01*
X105595Y81298D01*
X106438Y81862D01*
X107002Y82705D01*
X107200Y83700D01*
X107002Y84695D01*
X106549Y85372D01*
X106936Y85690D01*
X122229Y70396D01*
X122036Y69928D01*
X121913Y69000D01*
X122036Y68072D01*
X122394Y67207D01*
X122873Y66582D01*
X122652Y66134D01*
X109394D01*
X103269Y72259D01*
Y76119D01*
X97732D01*
Y74479D01*
X94115D01*
Y74741D01*
X89759D01*
Y70779D01*
X94115D01*
Y71828D01*
X97732D01*
Y70188D01*
X101591D01*
X107908Y63871D01*
X108338Y63584D01*
X108845Y63483D01*
X128300D01*
X128807Y63584D01*
X129237Y63871D01*
X129237Y63871D01*
X129237Y63871D01*
X130493Y65127D01*
X130780Y65557D01*
X130881Y66064D01*
Y80680D01*
X130780Y81187D01*
X130493Y81617D01*
X127576Y84535D01*
Y98455D01*
X128016Y98691D01*
X128305Y98498D01*
X129300Y98300D01*
X129905Y98420D01*
X134806Y93520D01*
Y60972D01*
X116335Y42501D01*
X110999D01*
Y34798D01*
X116335D01*
X119750Y31383D01*
Y28196D01*
X125287D01*
Y34127D01*
X121064D01*
X120786Y34543D01*
X120847Y34689D01*
X122018D01*
Y37354D01*
X119550D01*
Y35986D01*
X119088Y35794D01*
X117717Y37165D01*
Y40134D01*
X137069Y59486D01*
X137183Y59497D01*
X150774Y45906D01*
Y42001D01*
X148740D01*
Y34298D01*
X154748D01*
X157491Y31555D01*
Y27696D01*
X163028D01*
Y33627D01*
X159476D01*
X159199Y34043D01*
X159259Y34189D01*
X159759D01*
Y36854D01*
X157291D01*
Y36158D01*
X156829Y35966D01*
X155458Y37337D01*
Y42001D01*
X153425D01*
Y46455D01*
X153425Y46455D01*
X153425Y46455D01*
Y46455D01*
X153425D01*
X153425Y46455D01*
X153324Y46963D01*
X153036Y47393D01*
X148116Y52313D01*
X148308Y52775D01*
X173840D01*
X186481Y40134D01*
Y34798D01*
X191816D01*
X195231Y31383D01*
Y28196D01*
X200768D01*
Y34127D01*
X196545D01*
X196268Y34543D01*
X196328Y34689D01*
X197500D01*
Y37354D01*
X195031D01*
Y35986D01*
X194570Y35794D01*
X193199Y37165D01*
Y42501D01*
X187863D01*
X175327Y55037D01*
X174897Y55325D01*
X174389Y55426D01*
X148326D01*
Y56928D01*
X151619D01*
Y62072D01*
X150766D01*
Y63012D01*
X150766Y63012D01*
X150766Y63012D01*
Y63012D01*
X150766D01*
X150766Y63012D01*
X150665Y63519D01*
X150378Y63949D01*
X149361Y64966D01*
X149552Y65428D01*
X151619D01*
Y68278D01*
X152035Y68556D01*
X152381Y68412D01*
Y65428D01*
X156737D01*
Y66675D01*
X192451D01*
X196950Y62176D01*
Y56950D01*
X204050D01*
Y64050D01*
X198825D01*
X193937Y68937D01*
X193507Y69225D01*
X193000Y69326D01*
X156737D01*
Y70572D01*
X154540D01*
X154349Y71034D01*
X158969Y75653D01*
X159099D01*
X159606Y75754D01*
X160036Y76042D01*
X177387Y93392D01*
X177387Y93392D01*
X177387Y93392D01*
X177675Y93822D01*
X177776Y94330D01*
Y96950D01*
X184050D01*
Y104050D01*
X181825D01*
Y108763D01*
X183072D01*
Y113119D01*
X177928D01*
D01*
X177928D01*
X177825Y113222D01*
Y113881D01*
X177928D01*
Y113881D01*
X183072D01*
Y116756D01*
X194658Y128342D01*
X199821D01*
X200328Y128443D01*
X200758Y128730D01*
X200758Y128730D01*
X200758Y128730D01*
X203213Y131185D01*
X203675Y130993D01*
Y126849D01*
X199563Y122737D01*
X199275Y122307D01*
X199174Y121800D01*
Y118737D01*
X197928D01*
Y114381D01*
X203072D01*
Y118737D01*
X201825D01*
Y121251D01*
X205937Y125363D01*
X205937Y125363D01*
X205937Y125363D01*
X206225Y125793D01*
X206326Y126300D01*
Y131968D01*
X206883D01*
Y137184D01*
X207345Y137375D01*
X208117Y136602D01*
Y131968D01*
X211883D01*
Y139473D01*
X208996D01*
X207558Y140910D01*
X207128Y141198D01*
X206621Y141299D01*
X203379D01*
X202872Y141198D01*
X202442Y140910D01*
X201680Y140149D01*
X201393Y139719D01*
X201344Y139473D01*
X198996D01*
X197558Y140910D01*
X197128Y141198D01*
X196621Y141299D01*
X188379D01*
X188379Y141299D01*
X187872Y141198D01*
X187641Y141044D01*
X187552Y141062D01*
X187176Y141263D01*
Y143663D01*
X187075Y144171D01*
X186787Y144601D01*
X174801Y156587D01*
X174371Y156875D01*
X174165Y156915D01*
X174214Y157413D01*
X185572D01*
X186696Y156290D01*
X187126Y156002D01*
X187633Y155901D01*
X203819D01*
X219785Y139935D01*
X219593Y139473D01*
X218117D01*
Y131968D01*
X219175D01*
Y118237D01*
X217928D01*
Y113881D01*
X223072D01*
Y118237D01*
X221826D01*
Y130493D01*
X222287Y130685D01*
X222442Y130531D01*
X222872Y130243D01*
X223379Y130142D01*
X228637D01*
X233688Y125091D01*
Y121231D01*
X235934D01*
Y111241D01*
X235279D01*
Y106885D01*
X237157D01*
X237349Y106423D01*
X228701Y97776D01*
X224050D01*
Y104050D01*
X221826D01*
Y108763D01*
X223072D01*
Y113119D01*
X217928D01*
Y108763D01*
X219175D01*
Y104050D01*
X216950D01*
Y97776D01*
X214050D01*
Y104050D01*
X211825D01*
Y108763D01*
X213072D01*
Y113119D01*
X207928D01*
Y108763D01*
X209174D01*
Y104050D01*
X206950D01*
Y97776D01*
X204050D01*
Y104050D01*
X201825D01*
Y109263D01*
X203072D01*
Y113619D01*
X197928D01*
Y109263D01*
X199174D01*
Y104050D01*
X196950D01*
Y99239D01*
X196488Y99048D01*
X194099Y101437D01*
X194050Y101470D01*
Y104050D01*
X186950D01*
Y96950D01*
X194050D01*
Y97084D01*
X194512Y97275D01*
X196274Y95513D01*
D01*
X196274D01*
Y95513D01*
D01*
X196274D01*
Y95513D01*
X196274D01*
X196274Y95513D01*
Y95513D01*
X196274Y95513D01*
Y95513D01*
X196704Y95225D01*
X197212Y95125D01*
X229250D01*
X229757Y95225D01*
X230187Y95513D01*
X230187Y95513D01*
X230187Y95513D01*
X241937Y107263D01*
X242225Y107693D01*
X242262Y107878D01*
X242759Y107829D01*
Y106885D01*
X243389D01*
X243598Y106495D01*
X243400Y105500D01*
X243598Y104505D01*
X244162Y103662D01*
X245005Y103098D01*
X246000Y102900D01*
X246995Y103098D01*
X247838Y103662D01*
X248402Y104505D01*
X248600Y105500D01*
X248402Y106495D01*
X247838Y107338D01*
X247325Y107681D01*
Y107803D01*
X247225Y108310D01*
X246937Y108740D01*
X246721Y108956D01*
Y111241D01*
X242759D01*
Y111241D01*
X242679D01*
X242325Y111594D01*
Y114759D01*
X242981D01*
Y119115D01*
X239019D01*
Y119115D01*
X238939D01*
X238585Y119468D01*
Y121231D01*
X239619D01*
Y126769D01*
X235759D01*
X230123Y132405D01*
X229693Y132692D01*
X229186Y132793D01*
X227083D01*
Y135221D01*
X225000D01*
Y135721D01*
X224500D01*
Y139673D01*
X223716D01*
X223555Y139914D01*
X206229Y157239D01*
X206421Y157701D01*
X216621D01*
X217128Y157802D01*
X217558Y158089D01*
X218996Y159527D01*
X221883D01*
Y167032D01*
X218117D01*
Y162398D01*
X217545Y161825D01*
X217083Y162016D01*
Y162779D01*
X212917D01*
Y160352D01*
X211883D01*
Y167032D01*
X211326D01*
Y172231D01*
X214119D01*
Y176200D01*
X214265Y176260D01*
X214681Y175983D01*
Y175500D01*
X217347D01*
Y177969D01*
X216753D01*
X198784Y195937D01*
X198354Y196225D01*
X197846Y196326D01*
X161929D01*
X161422Y196225D01*
X160992Y195937D01*
X159580Y194526D01*
X157200D01*
X156693Y194425D01*
X156274Y194145D01*
X155227Y194579D01*
X154500Y194675D01*
Y190500D01*
X158675D01*
X158579Y191227D01*
X158483Y191459D01*
X158761Y191875D01*
X159456D01*
X159733Y191459D01*
X159616Y191175D01*
X159461Y190000D01*
X159616Y188825D01*
X160069Y187731D01*
X160791Y186791D01*
X161731Y186069D01*
X162825Y185616D01*
X164000Y185461D01*
X165175Y185616D01*
X166269Y186069D01*
X167209Y186791D01*
X167931Y187731D01*
X168384Y188825D01*
X168539Y190000D01*
X168384Y191175D01*
X167931Y192269D01*
X167209Y193209D01*
X167367Y193675D01*
X170633D01*
X170791Y193209D01*
X170069Y192269D01*
X169616Y191175D01*
X169461Y190000D01*
X169616Y188825D01*
X170069Y187731D01*
X170791Y186791D01*
X171731Y186069D01*
X172825Y185616D01*
X174000Y185461D01*
X175175Y185616D01*
X176269Y186069D01*
X177209Y186791D01*
X177931Y187731D01*
X178384Y188825D01*
X178539Y190000D01*
X178384Y191175D01*
X177931Y192269D01*
X177209Y193209D01*
X177367Y193675D01*
X197297D01*
X212741Y178230D01*
X212550Y177769D01*
X208188D01*
Y174676D01*
X182437D01*
X181929Y174575D01*
X181499Y174287D01*
X177341Y170128D01*
X177238Y170139D01*
X176395Y170702D01*
X175400Y170900D01*
X174405Y170702D01*
X173562Y170138D01*
X172998Y169295D01*
X172800Y168300D01*
X172998Y167305D01*
X173091Y167166D01*
X172855Y166726D01*
X153253D01*
X153062Y167187D01*
X161881Y176007D01*
X162825Y175616D01*
X164000Y175461D01*
X165175Y175616D01*
X166269Y176069D01*
X167209Y176791D01*
X167931Y177731D01*
X168384Y178825D01*
X168539Y180000D01*
X168384Y181175D01*
X167931Y182269D01*
X167209Y183209D01*
X166269Y183931D01*
X165175Y184384D01*
X164000Y184539D01*
X162825Y184384D01*
X161731Y183931D01*
X160791Y183209D01*
X160069Y182269D01*
X159616Y181175D01*
X159461Y180000D01*
X159616Y178825D01*
X160007Y177881D01*
X147012Y164887D01*
X137424D01*
Y166330D01*
X134475D01*
Y166530D01*
X132859D01*
X132850Y166576D01*
X132562Y167006D01*
X131953Y167615D01*
Y168400D01*
X129969D01*
Y168900D01*
X129469D01*
Y171081D01*
X127984D01*
Y170881D01*
X127816D01*
Y170881D01*
X124475D01*
X123995Y171202D01*
X123000Y171400D01*
X122005Y171202D01*
X121162Y170638D01*
X120598Y169795D01*
X120400Y168800D01*
X120598Y167805D01*
X121162Y166962D01*
X121391Y166808D01*
X121246Y166330D01*
X112734D01*
X112730Y166348D01*
X112443Y166778D01*
X104312Y174909D01*
Y178769D01*
X102672D01*
Y185407D01*
X103048Y185737D01*
X104000Y185611D01*
X105175Y185766D01*
X106269Y186219D01*
X107209Y186941D01*
X107931Y187881D01*
X108384Y188975D01*
X108539Y190150D01*
X108384Y191325D01*
X107931Y192419D01*
X107209Y193359D01*
X106269Y194081D01*
X105175Y194534D01*
X104000Y194689D01*
X102825Y194534D01*
X101731Y194081D01*
X100791Y193359D01*
X100069Y192419D01*
X99616Y191325D01*
X99461Y190150D01*
X99616Y188975D01*
X100069Y187881D01*
X100092Y187852D01*
X100021Y187496D01*
Y178769D01*
X98381D01*
Y173231D01*
X102241D01*
X110180Y165292D01*
Y161054D01*
X110229Y160811D01*
X109911Y160424D01*
X106100D01*
Y157053D01*
Y156914D01*
X97770D01*
X97263Y156814D01*
X96833Y156526D01*
X89751Y149444D01*
X89464Y149014D01*
X89363Y148507D01*
Y143493D01*
X89464Y142986D01*
X89751Y142556D01*
X89751Y142556D01*
X89751Y142556D01*
X124925Y107382D01*
Y83986D01*
X125025Y83479D01*
X125313Y83049D01*
X125343Y83018D01*
X125182Y82545D01*
X124572Y82464D01*
X123707Y82106D01*
X122964Y81536D01*
X122394Y80793D01*
X122036Y79928D01*
X121913Y79000D01*
X122036Y78072D01*
X122394Y77207D01*
X122964Y76464D01*
X123707Y75894D01*
X124572Y75536D01*
X125500Y75413D01*
X126428Y75536D01*
X127293Y75894D01*
X127782Y76269D01*
X128230Y76048D01*
Y71952D01*
X127782Y71731D01*
X127293Y72106D01*
X126428Y72464D01*
X125500Y72587D01*
X124572Y72464D01*
X124104Y72271D01*
X107749Y88625D01*
X107319Y88913D01*
X106812Y89014D01*
X103269D01*
Y92048D01*
X104725Y93505D01*
X105013Y93935D01*
X105114Y94442D01*
Y101312D01*
X105013Y101819D01*
X104725Y102249D01*
X104295Y102536D01*
X103788Y102637D01*
X80000D01*
Y200000D01*
X250000D01*
Y0D01*
D02*
G37*
%LPC*%
G36*
X122018Y41020D02*
X119550D01*
Y38354D01*
X122018D01*
Y41020D01*
D02*
G37*
G36*
X163228Y40520D02*
X160759D01*
Y37854D01*
X163228D01*
Y40520D01*
D02*
G37*
G36*
X100001Y42501D02*
X93283D01*
Y34798D01*
X100001D01*
Y42501D01*
D02*
G37*
G36*
X200969Y37354D02*
X198500D01*
Y34689D01*
X200969D01*
Y37354D01*
D02*
G37*
G36*
X159759Y40520D02*
X157291D01*
Y37854D01*
X159759D01*
Y40520D01*
D02*
G37*
G36*
X175482Y42501D02*
X168764D01*
Y34798D01*
X175482D01*
Y42501D01*
D02*
G37*
G36*
X214050Y64050D02*
X206950D01*
Y56950D01*
X214050D01*
Y64050D01*
D02*
G37*
G36*
X194050D02*
X186950D01*
Y56950D01*
X194050D01*
Y64050D01*
D02*
G37*
G36*
X87500Y97347D02*
X85031D01*
Y94681D01*
X87500D01*
Y97347D01*
D02*
G37*
G36*
X180500Y64333D02*
X179508Y64202D01*
X178584Y63819D01*
X177790Y63210D01*
X177181Y62416D01*
X176936Y61826D01*
X156737D01*
Y62072D01*
X152381D01*
Y56928D01*
X156737D01*
Y59175D01*
X176936D01*
X177181Y58584D01*
X177790Y57790D01*
X178584Y57181D01*
X179508Y56798D01*
X180500Y56667D01*
X181492Y56798D01*
X182416Y57181D01*
X183210Y57790D01*
X183819Y58584D01*
X184202Y59508D01*
X184333Y60500D01*
X184202Y61492D01*
X183819Y62416D01*
X183210Y63210D01*
X182416Y63819D01*
X181492Y64202D01*
X180500Y64333D01*
D02*
G37*
G36*
X242300Y54600D02*
X241305Y54402D01*
X240461Y53838D01*
X239898Y52995D01*
X239700Y52000D01*
X239820Y51395D01*
X238751Y50326D01*
X238237D01*
Y51572D01*
X233881D01*
Y46428D01*
X238237D01*
Y47675D01*
X239300D01*
X239807Y47775D01*
X240237Y48063D01*
X240237Y48063D01*
X240237Y48063D01*
X241695Y49520D01*
X242300Y49400D01*
X243295Y49598D01*
X244139Y50161D01*
X244702Y51005D01*
X244900Y52000D01*
X244702Y52995D01*
X244139Y53838D01*
X243295Y54402D01*
X242300Y54600D01*
D02*
G37*
G36*
X197500Y41020D02*
X195031D01*
Y38354D01*
X197500D01*
Y41020D01*
D02*
G37*
G36*
X125487D02*
X123018D01*
Y38354D01*
X125487D01*
Y41020D01*
D02*
G37*
G36*
X224050Y64050D02*
X216950D01*
Y56950D01*
X222176D01*
X228763Y50362D01*
Y46428D01*
X233119D01*
Y51572D01*
X231303D01*
X224050Y58824D01*
Y64050D01*
D02*
G37*
G36*
X200969Y41020D02*
X198500D01*
Y38354D01*
X200969D01*
Y41020D01*
D02*
G37*
G36*
X175482Y11202D02*
X168764D01*
Y8623D01*
X168475Y8430D01*
X168323Y8349D01*
X167495Y8902D01*
X166500Y9100D01*
X165505Y8902D01*
X164662Y8338D01*
X164098Y7495D01*
X163900Y6500D01*
X164098Y5505D01*
X164662Y4662D01*
X165505Y4098D01*
X166500Y3900D01*
X167495Y4098D01*
X168323Y4651D01*
X168475Y4570D01*
X168764Y4377D01*
Y3499D01*
X175482D01*
Y11202D01*
D02*
G37*
G36*
X193199D02*
X186481D01*
Y3499D01*
X193199D01*
Y11202D01*
D02*
G37*
G36*
X217339Y20830D02*
X216667Y20742D01*
X216042Y20483D01*
X215505Y20070D01*
X215092Y19533D01*
X214833Y18908D01*
X214745Y18236D01*
X214833Y17565D01*
X215092Y16939D01*
X215505Y16402D01*
X216042Y15990D01*
X216667Y15731D01*
X217339Y15642D01*
X218010Y15731D01*
X218636Y15990D01*
X219173Y16402D01*
X219585Y16939D01*
X219844Y17565D01*
X219932Y18236D01*
X219844Y18908D01*
X219585Y19533D01*
X219173Y20070D01*
X218636Y20483D01*
X218010Y20742D01*
X217339Y20830D01*
D02*
G37*
G36*
X137742Y10702D02*
X131024D01*
Y8745D01*
X130582Y8510D01*
X129995Y8902D01*
X129000Y9100D01*
X128005Y8902D01*
X127162Y8338D01*
X126598Y7495D01*
X126400Y6500D01*
X126598Y5505D01*
X127162Y4662D01*
X128005Y4098D01*
X129000Y3900D01*
X129995Y4098D01*
X130582Y4490D01*
X131024Y4255D01*
Y2999D01*
X137742D01*
Y10702D01*
D02*
G37*
G36*
X212417Y12172D02*
X204542D01*
X204230Y12110D01*
X203966Y11933D01*
X203789Y11668D01*
X203727Y11356D01*
Y1514D01*
X203789Y1202D01*
X203966Y937D01*
X204230Y760D01*
X204542Y698D01*
X212417D01*
X212729Y760D01*
X212993Y937D01*
X213170Y1202D01*
X213232Y1514D01*
Y11356D01*
X213170Y11668D01*
X212993Y11933D01*
X212729Y12110D01*
X212417Y12172D01*
D02*
G37*
G36*
X247466Y12163D02*
X239593D01*
X239280Y12101D01*
X239016Y11924D01*
X238839Y11659D01*
X238777Y11347D01*
Y1505D01*
X238839Y1193D01*
X239016Y928D01*
X239280Y751D01*
X239593Y689D01*
X247466D01*
X247779Y751D01*
X248043Y928D01*
X248220Y1193D01*
X248282Y1505D01*
Y11347D01*
X248220Y11659D01*
X248043Y11924D01*
X247779Y12101D01*
X247466Y12163D01*
D02*
G37*
G36*
X117717Y11202D02*
X110999D01*
Y3499D01*
X117717D01*
Y11202D01*
D02*
G37*
G36*
X155458Y10702D02*
X148740D01*
Y2999D01*
X155458D01*
Y10702D01*
D02*
G37*
G36*
X234661Y20830D02*
X233990Y20742D01*
X233365Y20483D01*
X232827Y20070D01*
X232415Y19533D01*
X232156Y18908D01*
X232068Y18236D01*
X232156Y17565D01*
X232415Y16939D01*
X232827Y16402D01*
X233365Y15990D01*
X233990Y15731D01*
X234661Y15642D01*
X235333Y15731D01*
X235958Y15990D01*
X236495Y16402D01*
X236908Y16939D01*
X237167Y17565D01*
X237255Y18236D01*
X237167Y18908D01*
X236908Y19533D01*
X236495Y20070D01*
X235958Y20483D01*
X235333Y20742D01*
X234661Y20830D01*
D02*
G37*
G36*
X163228Y36854D02*
X160759D01*
Y34189D01*
X163228D01*
Y36854D01*
D02*
G37*
G36*
X233500Y38600D02*
X232505Y38402D01*
X231662Y37839D01*
X231098Y36995D01*
X230900Y36000D01*
X231056Y35214D01*
X230974Y34799D01*
Y33800D01*
X221685D01*
Y34000D01*
X220201D01*
Y28472D01*
Y22945D01*
X221685D01*
Y23145D01*
X234084D01*
Y33516D01*
X234495Y33598D01*
X235338Y34161D01*
X235902Y35005D01*
X236100Y36000D01*
X235902Y36995D01*
X235338Y37839D01*
X234495Y38402D01*
X233500Y38600D01*
D02*
G37*
G36*
X125487Y37354D02*
X123018D01*
Y34689D01*
X125487D01*
Y37354D01*
D02*
G37*
G36*
X137742Y42001D02*
X131024D01*
Y34298D01*
X137742D01*
Y42001D01*
D02*
G37*
G36*
X212417Y33825D02*
X204542D01*
X204230Y33763D01*
X203966Y33586D01*
X203789Y33322D01*
X203727Y33010D01*
Y23167D01*
X203789Y22855D01*
X203966Y22591D01*
X204230Y22414D01*
X204542Y22352D01*
X212417D01*
X212729Y22414D01*
X212993Y22591D01*
X213170Y22855D01*
X213232Y23167D01*
Y33010D01*
X213170Y33322D01*
X212993Y33586D01*
X212729Y33763D01*
X212417Y33825D01*
D02*
G37*
G36*
X247466Y33816D02*
X239593D01*
X239280Y33754D01*
X239016Y33578D01*
X238839Y33313D01*
X238777Y33001D01*
Y23158D01*
X238839Y22846D01*
X239016Y22581D01*
X239280Y22405D01*
X239593Y22343D01*
X247466D01*
X247779Y22405D01*
X248043Y22581D01*
X248220Y22846D01*
X248282Y23158D01*
Y33001D01*
X248220Y33313D01*
X248043Y33578D01*
X247779Y33754D01*
X247466Y33816D01*
D02*
G37*
G36*
X219201Y34000D02*
X217717D01*
Y28972D01*
X219201D01*
Y34000D01*
D02*
G37*
G36*
Y27972D02*
X217717D01*
Y22945D01*
X219201D01*
Y27972D01*
D02*
G37*
G36*
X243500Y132100D02*
X242505Y131902D01*
X241662Y131338D01*
X241098Y130495D01*
X240900Y129500D01*
X241098Y128505D01*
X241662Y127662D01*
X242021Y127421D01*
Y126769D01*
X240381D01*
Y121231D01*
X246312D01*
Y126769D01*
X244863D01*
X244718Y127247D01*
X245339Y127662D01*
X245902Y128505D01*
X246100Y129500D01*
X245902Y130495D01*
X245339Y131338D01*
X244495Y131902D01*
X243500Y132100D01*
D02*
G37*
G36*
X221012Y177969D02*
X218347D01*
Y175500D01*
X221012D01*
Y177969D01*
D02*
G37*
G36*
X174000Y184539D02*
X172825Y184384D01*
X171731Y183931D01*
X170791Y183209D01*
X170069Y182269D01*
X169616Y181175D01*
X169461Y180000D01*
X169616Y178825D01*
X170069Y177731D01*
X170791Y176791D01*
X171731Y176069D01*
X172825Y175616D01*
X174000Y175461D01*
X175175Y175616D01*
X176269Y176069D01*
X177209Y176791D01*
X177931Y177731D01*
X178384Y178825D01*
X178539Y180000D01*
X178384Y181175D01*
X177931Y182269D01*
X177209Y183209D01*
X176269Y183931D01*
X175175Y184384D01*
X174000Y184539D01*
D02*
G37*
G36*
X97819Y178969D02*
X95153D01*
Y176500D01*
X97819D01*
Y178969D01*
D02*
G37*
G36*
X94153D02*
X91488D01*
Y176500D01*
X94153D01*
Y178969D01*
D02*
G37*
G36*
Y175500D02*
X91488D01*
Y173031D01*
X94153D01*
Y175500D01*
D02*
G37*
G36*
X221012Y174500D02*
X218347D01*
Y172031D01*
X221012D01*
Y174500D01*
D02*
G37*
G36*
X154000Y184539D02*
X152825Y184384D01*
X151731Y183931D01*
X150791Y183209D01*
X150069Y182269D01*
X149616Y181175D01*
X149461Y180000D01*
X149616Y178825D01*
X150069Y177731D01*
X150791Y176791D01*
X151731Y176069D01*
X152825Y175616D01*
X154000Y175461D01*
X155175Y175616D01*
X156269Y176069D01*
X157209Y176791D01*
X157931Y177731D01*
X158384Y178825D01*
X158539Y180000D01*
X158384Y181175D01*
X157931Y182269D01*
X157209Y183209D01*
X156269Y183931D01*
X155175Y184384D01*
X154000Y184539D01*
D02*
G37*
G36*
X97819Y175500D02*
X95153D01*
Y173031D01*
X97819D01*
Y175500D01*
D02*
G37*
G36*
X153500Y194675D02*
X152773Y194579D01*
X151630Y194105D01*
X150648Y193352D01*
X149895Y192370D01*
X149421Y191227D01*
X149325Y190500D01*
X153500D01*
Y194675D01*
D02*
G37*
G36*
X114000Y194689D02*
X112825Y194534D01*
X111731Y194081D01*
X110791Y193359D01*
X110069Y192419D01*
X109616Y191325D01*
X109461Y190150D01*
X109616Y188975D01*
X110069Y187881D01*
X110791Y186941D01*
X111731Y186219D01*
X112825Y185766D01*
X114000Y185611D01*
X115175Y185766D01*
X116269Y186219D01*
X117209Y186941D01*
X117931Y187881D01*
X118384Y188975D01*
X118539Y190150D01*
X118384Y191325D01*
X117931Y192419D01*
X117209Y193359D01*
X116269Y194081D01*
X115175Y194534D01*
X114000Y194689D01*
D02*
G37*
G36*
X94500Y194825D02*
Y190650D01*
X98675D01*
X98579Y191377D01*
X98105Y192520D01*
X97352Y193502D01*
X96370Y194255D01*
X95227Y194729D01*
X94500Y194825D01*
D02*
G37*
G36*
X93500D02*
X92773Y194729D01*
X91630Y194255D01*
X90648Y193502D01*
X89895Y192520D01*
X89421Y191377D01*
X89325Y190650D01*
X93500D01*
Y194825D01*
D02*
G37*
G36*
X158675Y189500D02*
X154500D01*
Y185325D01*
X155227Y185421D01*
X156370Y185895D01*
X157352Y186648D01*
X158105Y187630D01*
X158579Y188773D01*
X158675Y189500D01*
D02*
G37*
G36*
X153500D02*
X149325D01*
X149421Y188773D01*
X149895Y187630D01*
X150648Y186648D01*
X151630Y185895D01*
X152773Y185421D01*
X153500Y185325D01*
Y189500D01*
D02*
G37*
G36*
X98675Y189650D02*
X94500D01*
Y185475D01*
X95227Y185571D01*
X96370Y186045D01*
X97352Y186798D01*
X98105Y187780D01*
X98579Y188923D01*
X98675Y189650D01*
D02*
G37*
G36*
X93500D02*
X89325D01*
X89421Y188923D01*
X89895Y187780D01*
X90648Y186798D01*
X91630Y186045D01*
X92773Y185571D01*
X93500Y185475D01*
Y189650D01*
D02*
G37*
G36*
X227083Y139673D02*
X225500D01*
Y136221D01*
X227083D01*
Y139673D01*
D02*
G37*
G36*
X92100Y137508D02*
Y135300D01*
X94308D01*
X94279Y135518D01*
X94002Y136187D01*
X93561Y136761D01*
X92987Y137202D01*
X92318Y137479D01*
X92100Y137508D01*
D02*
G37*
G36*
X100300Y142408D02*
X100082Y142379D01*
X99413Y142102D01*
X98839Y141661D01*
X98398Y141087D01*
X98121Y140418D01*
X98092Y140200D01*
X100300D01*
Y142408D01*
D02*
G37*
G36*
X103508Y139200D02*
X101300D01*
Y136992D01*
X101518Y137021D01*
X102187Y137298D01*
X102761Y137739D01*
X103202Y138313D01*
X103479Y138982D01*
X103508Y139200D01*
D02*
G37*
G36*
X91100Y134300D02*
X88892D01*
X88921Y134082D01*
X89198Y133413D01*
X89639Y132839D01*
X90213Y132398D01*
X90882Y132121D01*
X91100Y132092D01*
Y134300D01*
D02*
G37*
G36*
X216883Y139473D02*
X213117D01*
Y131968D01*
X213674D01*
Y126649D01*
X209563Y122537D01*
X209275Y122107D01*
X209174Y121600D01*
Y118237D01*
X207928D01*
Y113881D01*
X213072D01*
Y118237D01*
X211825D01*
Y121051D01*
X215937Y125163D01*
X215937Y125163D01*
X215937Y125163D01*
X216225Y125593D01*
X216325Y126100D01*
Y131968D01*
X216883D01*
Y139473D01*
D02*
G37*
G36*
X91100Y137508D02*
X90882Y137479D01*
X90213Y137202D01*
X89639Y136761D01*
X89198Y136187D01*
X88921Y135518D01*
X88892Y135300D01*
X91100D01*
Y137508D01*
D02*
G37*
G36*
X94308Y134300D02*
X92100D01*
Y132092D01*
X92318Y132121D01*
X92987Y132398D01*
X93561Y132839D01*
X94002Y133413D01*
X94279Y134082D01*
X94308Y134300D01*
D02*
G37*
G36*
X217083Y167232D02*
X215500D01*
Y163779D01*
X217083D01*
Y167232D01*
D02*
G37*
G36*
X214500D02*
X212917D01*
Y163779D01*
X214500D01*
Y167232D01*
D02*
G37*
G36*
X217347Y174500D02*
X214681D01*
Y172031D01*
X217347D01*
Y174500D01*
D02*
G37*
G36*
X131953Y171081D02*
X130468D01*
Y169400D01*
X131953D01*
Y171081D01*
D02*
G37*
G36*
X97319Y145500D02*
X94653D01*
Y143032D01*
X97319D01*
Y145500D01*
D02*
G37*
G36*
X101300Y142408D02*
Y140200D01*
X103508D01*
X103479Y140418D01*
X103202Y141087D01*
X102761Y141661D01*
X102187Y142102D01*
X101518Y142379D01*
X101300Y142408D01*
D02*
G37*
G36*
X226883Y167032D02*
X223117D01*
Y159527D01*
X226883D01*
Y161954D01*
X227899D01*
X228362Y161262D01*
X229205Y160698D01*
X230200Y160500D01*
X231195Y160698D01*
X232038Y161262D01*
X232602Y162105D01*
X232800Y163100D01*
X232602Y164095D01*
X232038Y164938D01*
X231195Y165502D01*
X230200Y165700D01*
X229205Y165502D01*
X228362Y164938D01*
X228139Y164605D01*
X226883D01*
Y167032D01*
D02*
G37*
G36*
X97319Y148969D02*
X94653D01*
Y146500D01*
X97319D01*
Y148969D01*
D02*
G37*
%LPD*%
D10*
X156500Y116173D02*
D03*
Y137827D02*
D03*
D11*
X113691Y131869D02*
D03*
D12*
X116841D02*
D03*
X119991D02*
D03*
X123140D02*
D03*
X126290D02*
D03*
X129439D02*
D03*
X132589D02*
D03*
X135739D02*
D03*
Y163561D02*
D03*
X132589D02*
D03*
X129439D02*
D03*
X126290D02*
D03*
X123140D02*
D03*
X119991D02*
D03*
X116841D02*
D03*
X113691D02*
D03*
D13*
X140561Y136691D02*
D03*
Y139841D02*
D03*
Y142991D02*
D03*
Y146140D02*
D03*
Y149290D02*
D03*
Y152439D02*
D03*
Y155589D02*
D03*
Y158739D02*
D03*
X108869D02*
D03*
Y155589D02*
D03*
Y152439D02*
D03*
Y149290D02*
D03*
Y146140D02*
D03*
Y142991D02*
D03*
Y139841D02*
D03*
Y136691D02*
D03*
D14*
X232299Y28472D02*
D03*
X229150D02*
D03*
X226000D02*
D03*
X222850D02*
D03*
X219701D02*
D03*
D15*
X172123Y38650D02*
D03*
Y7350D02*
D03*
X189840D02*
D03*
Y38650D02*
D03*
X96642D02*
D03*
Y7350D02*
D03*
X114358D02*
D03*
Y38650D02*
D03*
X134382Y38150D02*
D03*
Y6850D02*
D03*
X152099D02*
D03*
Y38150D02*
D03*
D16*
X156437Y81260D02*
D03*
Y88740D02*
D03*
X148563Y85000D02*
D03*
X91937Y72760D02*
D03*
Y80240D02*
D03*
X84063Y76500D02*
D03*
D17*
X225000Y135721D02*
D03*
X220000D02*
D03*
X215000D02*
D03*
X210000D02*
D03*
X205000D02*
D03*
X200000D02*
D03*
X195000D02*
D03*
X190000D02*
D03*
Y163279D02*
D03*
X195000D02*
D03*
X200000D02*
D03*
X205000D02*
D03*
X210000D02*
D03*
X215000D02*
D03*
X220000D02*
D03*
X225000D02*
D03*
D18*
X237260Y109063D02*
D03*
X244740D02*
D03*
X241000Y116937D02*
D03*
D19*
X100500Y97847D02*
D03*
Y91154D02*
D03*
X88000Y97847D02*
D03*
Y91154D02*
D03*
X143000Y97654D02*
D03*
Y104347D02*
D03*
X198000Y37854D02*
D03*
Y31161D02*
D03*
X122518Y37854D02*
D03*
Y31161D02*
D03*
X160259Y37354D02*
D03*
Y30661D02*
D03*
X100500Y73154D02*
D03*
Y79847D02*
D03*
D20*
X122600Y123331D02*
D03*
Y127269D02*
D03*
X129900Y123432D02*
D03*
Y127368D02*
D03*
X144000Y121468D02*
D03*
Y117532D02*
D03*
Y127032D02*
D03*
Y130968D02*
D03*
D21*
X154559Y68000D02*
D03*
X149441D02*
D03*
X154559Y59500D02*
D03*
X149441D02*
D03*
X230941Y49000D02*
D03*
X236059D02*
D03*
D22*
X94153Y146000D02*
D03*
X100847D02*
D03*
X211154Y175000D02*
D03*
X217846D02*
D03*
X236653Y124000D02*
D03*
X243347D02*
D03*
X94653Y176000D02*
D03*
X101347D02*
D03*
D23*
X210500Y110941D02*
D03*
Y116059D02*
D03*
X220500Y110941D02*
D03*
Y116059D02*
D03*
X200500Y111441D02*
D03*
Y116559D02*
D03*
X180500Y110941D02*
D03*
Y116059D02*
D03*
D24*
X126031Y168900D02*
D03*
X129969D02*
D03*
D25*
X14500Y28000D02*
D03*
X64500D02*
D03*
D26*
X167063Y162650D02*
X170975Y158739D01*
X160625D02*
X164537Y162650D01*
X140561Y158739D02*
X160625D01*
X170975D02*
X186121D01*
X222617Y132229D02*
Y138977D01*
X204368Y157227D02*
X222617Y138977D01*
X187633Y157227D02*
X204368D01*
X164537Y162650D02*
X167063D01*
X229186Y131468D02*
X236653Y124000D01*
X223379Y131468D02*
X229186D01*
X222617Y132229D02*
X223379Y131468D01*
X186121Y158739D02*
X187633Y157227D01*
X161962Y107999D02*
Y117249D01*
X160162Y108745D02*
Y117994D01*
X161962Y117249D02*
X185850Y141137D01*
X160162Y117994D02*
X177100Y134932D01*
X173863Y155650D02*
X185850Y143663D01*
Y141137D02*
Y143663D01*
X188379Y139973D02*
X196621D01*
X174700Y126294D02*
X188379Y139973D01*
X165700Y155650D02*
X173863D01*
X158353Y104391D02*
X161962Y107999D01*
X158353Y91221D02*
Y104391D01*
X148271Y112550D02*
X152838Y107984D01*
X133096Y112550D02*
X148271D01*
X125646Y120000D02*
X133096Y112550D01*
X152838Y107984D02*
X159401D01*
X160162Y108745D01*
X119272Y120000D02*
X125646D01*
X115850Y123422D02*
X119272Y120000D01*
X115850Y123422D02*
Y126363D01*
X116841Y127354D01*
Y131869D01*
X124900Y118200D02*
X139732Y103368D01*
X118527Y118200D02*
X124900D01*
X108869Y127858D02*
X118527Y118200D01*
X108869Y127858D02*
Y136691D01*
X195000Y168300D02*
X195200Y168500D01*
X195000Y163279D02*
Y168300D01*
X200000Y163279D02*
Y169800D01*
X198250Y171550D02*
X200000Y169800D01*
X188737Y171550D02*
X198250D01*
X119991Y126191D02*
Y131869D01*
X119000Y125200D02*
X119991Y126191D01*
X140561Y155589D02*
X140622Y155650D01*
X165700D01*
X165800Y155750D01*
Y159600D01*
X176437Y165250D02*
X178437Y163250D01*
X174137Y165250D02*
X176437D01*
X173987Y165400D02*
X174137Y165250D01*
X151946Y165400D02*
X173987D01*
X148307Y161761D02*
X151946Y165400D01*
X181013Y163300D02*
X184106D01*
X180963Y163250D02*
X181013Y163300D01*
X178437Y163250D02*
X180963D01*
X184106Y163300D02*
X188379Y159027D01*
X138891Y161761D02*
X148307D01*
X137293Y160163D02*
X138891Y161761D01*
X100500Y73154D02*
X108845Y64808D01*
X128300D01*
X90688Y143493D02*
X126250Y107931D01*
Y83986D02*
Y107931D01*
Y83986D02*
X129556Y80680D01*
X128300Y64808D02*
X129556Y66064D01*
Y80680D01*
X90688Y143493D02*
Y148507D01*
X97770Y155589D01*
X108869D01*
X100847Y146000D02*
X108728D01*
X113691Y131869D02*
Y158869D01*
X111505Y161054D02*
X113691Y158869D01*
X100500Y91154D02*
X103788Y94442D01*
Y101312D01*
X68855D02*
X103788D01*
X64043Y96500D02*
X68855Y101312D01*
X61000Y96500D02*
X64043D01*
X88000Y97847D02*
X100500D01*
X210000Y173846D02*
X211154Y175000D01*
X209504Y173350D02*
X210000Y173846D01*
X182437Y173350D02*
X209504D01*
X177387Y168300D02*
X182437Y173350D01*
X175400Y168300D02*
X177387D01*
X183487Y166300D02*
X188737Y171550D01*
X179700Y166300D02*
X183487D01*
X159850Y153850D02*
X164000Y149700D01*
X145637Y153850D02*
X159850D01*
X144226Y152439D02*
X145637Y153850D01*
X140561Y152439D02*
X144226D01*
X141525Y137655D02*
X145238D01*
X148028Y142991D02*
X152854Y147817D01*
X140561Y142991D02*
X148028D01*
X145238Y137655D02*
X153599Y146017D01*
X167250Y146650D02*
X168300Y147700D01*
X161313Y146650D02*
X167250D01*
X160146Y147817D02*
X161313Y146650D01*
X152854Y147817D02*
X160146D01*
X153599Y146017D02*
X159401D01*
X151400Y150700D02*
X151800Y150300D01*
X147640Y146140D02*
X151800Y150300D01*
X140561Y146140D02*
X147640D01*
X142900Y109500D02*
X143000Y109400D01*
Y104347D02*
Y109400D01*
X159401Y146017D02*
X163017Y142400D01*
X158353Y91221D02*
X159115Y90460D01*
Y87021D02*
Y90460D01*
X158353Y78779D02*
X160915Y81340D01*
Y90849D01*
X154521Y86259D02*
X158353D01*
X160915Y90849D02*
X174700Y104634D01*
X158353Y86259D02*
X159115Y87021D01*
X143126Y97654D02*
X154521Y86259D01*
X143000Y97654D02*
X143126D01*
X139732Y64221D02*
Y103368D01*
X145390Y149290D02*
X146900Y150800D01*
X140561Y149290D02*
X145390D01*
X129300Y100900D02*
X136132Y94068D01*
Y60423D02*
Y94068D01*
X114358Y38650D02*
X136132Y60423D01*
X137932Y60623D02*
X152099Y46455D01*
Y38150D02*
Y46455D01*
X137932Y60623D02*
Y97569D01*
X134600Y100900D02*
X137932Y97569D01*
X106812Y87688D02*
X125500Y69000D01*
X97993Y87688D02*
X106812D01*
X118900Y125100D02*
X119000Y125200D01*
X126100D02*
X126300Y125000D01*
X132589Y125098D02*
Y131869D01*
Y125098D02*
X139237Y118450D01*
X139732Y64221D02*
X147000Y56953D01*
Y54100D02*
Y56953D01*
Y54100D02*
X174389D01*
X126100Y125200D02*
X127868Y123432D01*
X174389Y54100D02*
X189840Y38650D01*
X114358D02*
X121846Y31161D01*
X122518D01*
X152099Y38150D02*
X152771D01*
X160259Y30661D01*
X189840Y38650D02*
X197328Y31161D01*
X198000D01*
X239300Y49000D02*
X242300Y52000D01*
X236059Y49000D02*
X239300D01*
X188953Y128800D02*
X195000Y134847D01*
Y135721D01*
X188200Y128800D02*
X188953D01*
X100847Y150747D02*
X101100Y151000D01*
X100847Y146000D02*
Y150747D01*
X111505Y161054D02*
Y165841D01*
X101347Y176000D02*
X111505Y165841D01*
X101347Y187496D02*
X104000Y190150D01*
X101347Y176000D02*
Y187496D01*
X131625Y164525D02*
X132589Y163561D01*
X147561D02*
X164000Y180000D01*
X135739Y163561D02*
X147561D01*
X154000Y190000D02*
X157200Y193200D01*
X160129D01*
X161929Y195000D02*
X197846D01*
X217846Y175000D01*
X160129Y193200D02*
X161929Y195000D01*
X140561Y136691D02*
X141525Y137655D01*
X163017Y142400D02*
X182800D01*
X188379Y159027D02*
X216621D01*
X230020Y163279D02*
X230200Y163100D01*
X225000Y163279D02*
X230020D01*
X139598Y140805D02*
X140561Y139841D01*
X138054Y140805D02*
X139598D01*
X137293Y141566D02*
X138054Y140805D01*
X137293Y141566D02*
Y160163D01*
X216621Y159027D02*
X220000Y162406D01*
Y163279D01*
X210000D02*
Y173846D01*
X139237Y118450D02*
X143081D01*
X144000Y117532D01*
X145358Y116173D01*
X156500D01*
X135739Y131869D02*
X136639Y130968D01*
X144000D01*
X149642D01*
X156500Y137827D01*
X88000Y91154D02*
X94528D01*
X97993Y87688D01*
X156437Y88740D02*
Y90909D01*
X143000Y104347D02*
X156437Y90909D01*
Y81260D02*
Y81524D01*
X143000Y94960D02*
X156437Y81524D01*
X143000Y94960D02*
Y97654D01*
X148263Y85300D02*
X148563Y85000D01*
X143500Y85300D02*
X148263D01*
X241000Y108200D02*
Y116937D01*
X229250Y96450D02*
X241000Y108200D01*
X190500Y100500D02*
X193161D01*
X197212Y96450D01*
X176450Y94330D02*
Y103839D01*
X176500Y103888D01*
X149441Y68000D02*
X158420Y76979D01*
X159099D01*
X220500Y60500D02*
X230941Y50059D01*
Y49000D02*
Y50059D01*
X197212Y96450D02*
X229250D01*
X236653Y124000D02*
X237260Y123394D01*
Y109063D02*
Y123394D01*
X200000Y135721D02*
Y136594D01*
X196621Y139973D02*
X200000Y136594D01*
X159099Y76979D02*
X176450Y94330D01*
X174700Y104634D02*
Y126294D01*
X154470Y78779D02*
X158353D01*
X146763Y71072D02*
X154470Y78779D01*
X146763Y65690D02*
Y71072D01*
Y65690D02*
X149441Y63012D01*
Y59500D02*
Y63012D01*
X176500Y122221D02*
X190000Y135721D01*
X176500Y103888D02*
Y122221D01*
X194109Y129668D02*
X199821D01*
X180500Y116059D02*
X194109Y129668D01*
X199821D02*
X202617Y132464D01*
X210000Y135721D02*
Y136594D01*
X206621Y139973D02*
X210000Y136594D01*
X203379Y139973D02*
X206621D01*
X202617Y139212D02*
X203379Y139973D01*
X202617Y132464D02*
Y139212D01*
X205000Y126300D02*
Y135721D01*
X200500Y121800D02*
X205000Y126300D01*
X200500Y116559D02*
Y121800D01*
X215000Y126100D02*
Y135721D01*
X210500Y121600D02*
X215000Y126100D01*
X210500Y116059D02*
Y121600D01*
X220000Y135721D02*
X220500Y135221D01*
Y116059D02*
Y135221D01*
X193000Y68000D02*
X200500Y60500D01*
X154559Y68000D02*
X193000D01*
X180500Y100500D02*
Y110941D01*
X220500Y100500D02*
Y110941D01*
X210500Y100500D02*
Y110941D01*
X200500Y100500D02*
Y111441D01*
X154559Y59500D02*
X155559Y60500D01*
X180500D01*
X95791Y6500D02*
X96642Y7350D01*
X91000Y6500D02*
X95791D01*
X134032D02*
X134382Y6850D01*
X129000Y6500D02*
X134032D01*
X171273D02*
X172123Y7350D01*
X166500Y6500D02*
X171273D01*
X232299Y34799D02*
X233500Y36000D01*
X232299Y28472D02*
Y34799D01*
X243347Y129347D02*
X243500Y129500D01*
X243347Y124000D02*
Y129347D01*
X244740Y109063D02*
X246000Y107803D01*
Y105500D02*
Y107803D01*
X190000Y163279D02*
Y168500D01*
X205000Y163279D02*
Y168500D01*
X100500Y80500D02*
X103700Y83700D01*
X104600D01*
X125932Y168800D02*
X126031Y168900D01*
X123000Y168800D02*
X125932D01*
X123000D02*
X123140Y168660D01*
Y163561D02*
Y168660D01*
X131625Y164525D02*
Y166068D01*
X129969Y167725D02*
X131625Y166068D01*
X129969Y167725D02*
Y168900D01*
X140500Y121500D02*
X140532Y121468D01*
X144000D01*
X140500Y127000D02*
X140532Y127032D01*
X144000D01*
X120947Y124984D02*
X122600Y123331D01*
X119216Y124984D02*
X120947D01*
X119000Y125200D02*
X119216Y124984D01*
X129439Y131869D02*
X129900Y131408D01*
Y127368D02*
Y131408D01*
X122600Y131328D02*
X123000Y131728D01*
X122600Y127269D02*
Y131328D01*
X127868Y123432D02*
X129900D01*
X126100Y125200D02*
X126290Y125390D01*
Y131869D01*
X100500Y79847D02*
Y80500D01*
X91937Y72760D02*
X92331Y73154D01*
X100500D01*
X91937Y80240D02*
X92331Y79847D01*
X100500D01*
X71000Y89563D02*
Y96500D01*
Y89563D02*
X84063Y76500D01*
X108728Y146000D02*
X108869Y146140D01*
D27*
X60500Y28500D02*
Y47000D01*
X31000Y76500D02*
X60500Y47000D01*
X31000Y76500D02*
Y96500D01*
X60500Y28500D02*
X64000Y25000D01*
X11000Y31500D02*
X14500Y28000D01*
X11000Y31500D02*
Y96500D01*
D28*
X243530Y6426D02*
D03*
Y28080D02*
D03*
X208479Y6435D02*
D03*
Y28089D02*
D03*
D29*
X154000Y180000D02*
D03*
Y190000D02*
D03*
X164000Y180000D02*
D03*
Y190000D02*
D03*
X174000Y180000D02*
D03*
Y190000D02*
D03*
X94000Y190150D02*
D03*
X104000D02*
D03*
X114000D02*
D03*
D30*
X125500Y69000D02*
D03*
Y79000D02*
D03*
D31*
X180500Y100500D02*
D03*
X190500D02*
D03*
X200500D02*
D03*
X210500D02*
D03*
X220500D02*
D03*
Y60500D02*
D03*
X210500D02*
D03*
X200500D02*
D03*
X190500D02*
D03*
D32*
X180500D02*
D03*
D33*
X61000Y96500D02*
D03*
X71000D02*
D03*
D34*
X31000D02*
D03*
X11000D02*
D03*
D35*
X157700Y160400D02*
D03*
X176600Y136200D02*
D03*
X182800Y142400D02*
D03*
X195200Y168500D02*
D03*
X118900Y125100D02*
D03*
X165800Y159600D02*
D03*
X91600Y134800D02*
D03*
X100800Y139700D02*
D03*
X179700Y166300D02*
D03*
X175400Y168300D02*
D03*
X151400Y150700D02*
D03*
X164000Y149700D02*
D03*
X168300Y147700D02*
D03*
X142900Y109500D02*
D03*
X146900Y150800D02*
D03*
X134600Y100900D02*
D03*
X129300D02*
D03*
X126300Y125000D02*
D03*
X140500Y127000D02*
D03*
X104600Y83700D02*
D03*
X242300Y52000D02*
D03*
X188200Y128800D02*
D03*
X101100Y151000D02*
D03*
X230200Y163100D02*
D03*
X143500Y85300D02*
D03*
X123000Y168800D02*
D03*
X91000Y6500D02*
D03*
X129000D02*
D03*
X166500D02*
D03*
X233500Y36000D02*
D03*
X246000Y105500D02*
D03*
X243500Y129500D02*
D03*
X190000Y168500D02*
D03*
X205000D02*
D03*
X140500Y121500D02*
D03*
D36*
X234661Y18236D02*
D03*
X217339D02*
D03*
M02*
