M48
;Layer_Color=9474304
;FILE_FORMAT=2:5
INCH,LZ
;TYPE=PLATED
T1F00S00C0.01378
T2F00S00C0.02900
T3F00S00C0.03150
T4F00S00C0.03346
T5F00S00C0.03543
T6F00S00C0.04000
%
T01
X0091Y00065
X0129
X01665
X02335Y0036
X02423Y0052
X0246Y01055
X02435Y01295
X02302Y01631
X0205Y01685
X01952
X019
X01797Y01663
X01754Y01683
X01658Y01596
X01577Y01604
X01514Y01507
X01469Y01508
X0164Y01497
X01683Y01477
X01766Y01362
X01828Y01424
X01882Y01288
X01405Y0127
Y01215
X01429Y01095
X01346Y01009
X01293
X01263Y0125
X01189Y01251
X01008Y01397
X01011Y0151
X00916Y01348
X01046Y00837
X01435Y00853
X0123Y01688
T02
X02205Y00605
Y01005
X02105
X02005
X01905
X01805
Y00605
X01905
X02005
X02105
T03
X01255Y0069
Y0079
T04
X0061Y00965
X0071
X0031
X0011
T05
X0217339Y0018236
X0234661
T06
X0094Y019015
X0104
X0114
X0154Y019
Y018
X0164
Y019
X0174
Y018
M30
